<?xml version="1.0" encoding="UTF-8" standalone="no"?>
<!-- Created with Inkscape (http://www.inkscape.org/) -->

<svg
   xmlns:dc="http://purl.org/dc/elements/1.1/"
   xmlns:cc="http://creativecommons.org/ns#"
   xmlns:rdf="http://www.w3.org/1999/02/22-rdf-syntax-ns#"
   xmlns:svg="http://www.w3.org/2000/svg"
   xmlns="http://www.w3.org/2000/svg"
   xmlns:sodipodi="http://sodipodi.sourceforge.net/DTD/sodipodi-0.dtd"
   xmlns:inkscape="http://www.inkscape.org/namespaces/inkscape"
   version="1.1"
   width="1024"
   height="768"
   id="svg3039"
   inkscape:version="0.48.4 r9939"
   sodipodi:docname="label2.svg">
  <sodipodi:namedview
     pagecolor="#ffffff"
     bordercolor="#666666"
     borderopacity="1"
     objecttolerance="10"
     gridtolerance="10"
     guidetolerance="10"
     inkscape:pageopacity="0"
     inkscape:pageshadow="2"
     inkscape:window-width="1535"
     inkscape:window-height="876"
     id="namedview3072"
     showgrid="false"
     inkscape:zoom="0.59960937"
     inkscape:cx="441.87916"
     inkscape:cy="648.46021"
     inkscape:window-x="65"
     inkscape:window-y="24"
     inkscape:window-maximized="1"
     inkscape:current-layer="svg3039" />
  <metadata
     id="metadata3045">
    <rdf:RDF>
      <cc:Work
         rdf:about="">
        <dc:format>image/svg+xml</dc:format>
        <dc:type
           rdf:resource="http://purl.org/dc/dcmitype/StillImage" />
        <dc:title />
      </cc:Work>
    </rdf:RDF>
  </metadata>
  <defs
     id="defs3043">
    <clipPath
       id="clipPath4001">
      <path
         d="m 0,841.89 595.28,0 L 595.28,0 0,0 0,841.89 z"
         id="path4003" />
    </clipPath>
    <clipPath
       id="clipPath4001-1">
      <path
         d="m 0,841.89 595.28,0 L 595.28,0 0,0 0,841.89 z"
         id="path4003-7" />
    </clipPath>
    <clipPath
       id="clipPath4001-1-5">
      <path
         d="m 0,841.89 595.28,0 L 595.28,0 0,0 0,841.89 z"
         id="path4003-7-9" />
    </clipPath>
    <clipPath
       id="clipPath4001-1-8">
      <path
         d="m 0,841.89 595.28,0 L 595.28,0 0,0 0,841.89 z"
         id="path4003-7-0" />
    </clipPath>
    <clipPath
       id="clipPath4001-7">
      <path
         d="m 0,841.89 595.28,0 L 595.28,0 0,0 0,841.89 z"
         id="path4003-0" />
    </clipPath>
    <filter
       color-interpolation-filters="sRGB"
       id="filter6002">
      <feFlood
         result="flood"
         flood-color="rgb(0,0,0)"
         flood-opacity="0.705"
         id="feFlood6004" />
      <feComposite
         in2="SourceGraphic"
         operator="in"
         in="flood"
         result="composite1"
         id="feComposite6006" />
      <feGaussianBlur
         result="blur"
         stdDeviation="4"
         id="feGaussianBlur6008" />
      <feOffset
         result="offset"
         dy="4"
         dx="4"
         id="feOffset6010" />
      <feComposite
         in2="offset"
         operator="over"
         in="SourceGraphic"
         result="composite2"
         id="feComposite6012" />
    </filter>
    <filter
       color-interpolation-filters="sRGB"
       id="filter6026">
      <feFlood
         result="flood"
         flood-color="rgb(0,0,0)"
         flood-opacity="0.705"
         id="feFlood6028" />
      <feComposite
         in2="SourceGraphic"
         operator="in"
         in="flood"
         result="composite1"
         id="feComposite6030" />
      <feGaussianBlur
         result="blur"
         stdDeviation="4"
         id="feGaussianBlur6032" />
      <feOffset
         result="offset"
         dy="4"
         dx="4"
         id="feOffset6034" />
      <feComposite
         in2="offset"
         operator="over"
         in="SourceGraphic"
         result="composite2"
         id="feComposite6036" />
    </filter>
  </defs>
  <path
     d="m 58.866639,251.4585 9.722719,-23.5113 c 0,0 1.679378,-6.01041 10.341436,-2.2981 8.662058,3.71231 110.220266,45.96194 110.220266,45.96194 0,0 3.97748,1.14905 6.01041,5.39169 2.03293,4.24264 20.85965,48.96714 20.85965,48.96714 0,0 2.65165,3.88909 0.44194,9.01562 -2.20971,5.12652 -9.36916,21.47836 -9.36916,21.47836 0,0 -0.44194,4.33103 -5.92202,6.0988 -5.48008,1.76777 -49.36489,19.7106 -49.36489,19.7106 0,0 -3.40295,2.47488 -10.34144,-0.92808 -6.93849,-3.40295 -110.573823,-45.91774 -110.573823,-45.91774 0,0 -7.20365,-1.63519 -1.767767,-13.39084 5.435884,-11.75565 5.50104,-11.81784 5.50104,-11.81784 z"
     id="path3874"
     style="fill:#444444;fill-opacity:1;stroke:none;filter:url(#filter6002)"
     inkscape:connector-curvature="0" />
</svg>
