<?xml version="1.0" encoding="UTF-8" standalone="no"?>
<!-- Created with Inkscape (http://www.inkscape.org/) -->

<svg
   xmlns:dc="http://purl.org/dc/elements/1.1/"
   xmlns:cc="http://creativecommons.org/ns#"
   xmlns:rdf="http://www.w3.org/1999/02/22-rdf-syntax-ns#"
   xmlns:svg="http://www.w3.org/2000/svg"
   xmlns="http://www.w3.org/2000/svg"
   xmlns:sodipodi="http://sodipodi.sourceforge.net/DTD/sodipodi-0.dtd"
   xmlns:inkscape="http://www.inkscape.org/namespaces/inkscape"
   version="1.1"
   width="1024"
   height="768"
   id="svg3039"
   inkscape:version="0.48.4 r9939"
   sodipodi:docname="label3.svg">
  <sodipodi:namedview
     pagecolor="#ffffff"
     bordercolor="#666666"
     borderopacity="1"
     objecttolerance="10"
     gridtolerance="10"
     guidetolerance="10"
     inkscape:pageopacity="0"
     inkscape:pageshadow="2"
     inkscape:window-width="1535"
     inkscape:window-height="876"
     id="namedview3072"
     showgrid="false"
     inkscape:zoom="0.59960937"
     inkscape:cx="441.87916"
     inkscape:cy="648.46021"
     inkscape:window-x="65"
     inkscape:window-y="24"
     inkscape:window-maximized="1"
     inkscape:current-layer="svg3039" />
  <metadata
     id="metadata3045">
    <rdf:RDF>
      <cc:Work
         rdf:about="">
        <dc:format>image/svg+xml</dc:format>
        <dc:type
           rdf:resource="http://purl.org/dc/dcmitype/StillImage" />
        <dc:title />
      </cc:Work>
    </rdf:RDF>
  </metadata>
  <defs
     id="defs3043">
    <clipPath
       id="clipPath4001">
      <path
         d="m 0,841.89 595.28,0 L 595.28,0 0,0 0,841.89 z"
         id="path4003" />
    </clipPath>
    <clipPath
       id="clipPath4001-1">
      <path
         d="m 0,841.89 595.28,0 L 595.28,0 0,0 0,841.89 z"
         id="path4003-7" />
    </clipPath>
    <clipPath
       id="clipPath4001-1-5">
      <path
         d="m 0,841.89 595.28,0 L 595.28,0 0,0 0,841.89 z"
         id="path4003-7-9" />
    </clipPath>
    <clipPath
       id="clipPath4001-1-8">
      <path
         d="m 0,841.89 595.28,0 L 595.28,0 0,0 0,841.89 z"
         id="path4003-7-0" />
    </clipPath>
    <clipPath
       id="clipPath4001-7">
      <path
         d="m 0,841.89 595.28,0 L 595.28,0 0,0 0,841.89 z"
         id="path4003-0" />
    </clipPath>
    <filter
       color-interpolation-filters="sRGB"
       id="filter6002">
      <feFlood
         result="flood"
         flood-color="rgb(0,0,0)"
         flood-opacity="0.705"
         id="feFlood6004" />
      <feComposite
         in2="SourceGraphic"
         operator="in"
         in="flood"
         result="composite1"
         id="feComposite6006" />
      <feGaussianBlur
         result="blur"
         stdDeviation="4"
         id="feGaussianBlur6008" />
      <feOffset
         result="offset"
         dy="4"
         dx="4"
         id="feOffset6010" />
      <feComposite
         in2="offset"
         operator="over"
         in="SourceGraphic"
         result="composite2"
         id="feComposite6012" />
    </filter>
    <filter
       color-interpolation-filters="sRGB"
       id="filter6026">
      <feFlood
         result="flood"
         flood-color="rgb(0,0,0)"
         flood-opacity="0.705"
         id="feFlood6028" />
      <feComposite
         in2="SourceGraphic"
         operator="in"
         in="flood"
         result="composite1"
         id="feComposite6030" />
      <feGaussianBlur
         result="blur"
         stdDeviation="4"
         id="feGaussianBlur6032" />
      <feOffset
         result="offset"
         dy="4"
         dx="4"
         id="feOffset6034" />
      <feComposite
         in2="offset"
         operator="over"
         in="SourceGraphic"
         result="composite2"
         id="feComposite6036" />
    </filter>
  </defs>
  <path
     inkscape:connector-curvature="0"
     style="color:#000000;fill:#444444;fill-opacity:1;fill-rule:nonzero;stroke:none;stroke-width:0.85611855999999986;marker:none;visibility:visible;display:inline;overflow:visible;filter:url(#filter6002);enable-background:accumulate"
     id="path3076"
     d="m 208.53125,23.625 c -1.50718,0.01799 -2.98133,0.765276 -3.875,2.125 l -50.1875,76.34375 c -1.42988,2.17556 -0.83181,5.07012 1.34375,6.5 l 142.15625,93.4375 c 2.17556,1.42988 5.07012,0.83181 6.5,-1.34375 l 50.1875,-76.34375 c 1.42988,-2.17556 0.83181,-5.07012 -1.34375,-6.5 L 211.15625,24.40625 c -0.81583,-0.536204 -1.72069,-0.792046 -2.625,-0.78125 z m 108.875,127.53125 c 3.46904,0 6.28125,2.74762 6.28125,6.15625 0,3.40863 -2.81221,6.1875 -6.28125,6.1875 -3.46904,0 -6.28125,-2.77887 -6.28125,-6.1875 0,-3.40863 2.81221,-6.15625 6.28125,-6.15625 z" />
</svg>
