<?xml version="1.0" encoding="UTF-8" standalone="no"?>
<!-- Created with Inkscape (http://www.inkscape.org/) -->

<svg
   xmlns:dc="http://purl.org/dc/elements/1.1/"
   xmlns:cc="http://creativecommons.org/ns#"
   xmlns:rdf="http://www.w3.org/1999/02/22-rdf-syntax-ns#"
   xmlns:svg="http://www.w3.org/2000/svg"
   xmlns="http://www.w3.org/2000/svg"
   xmlns:sodipodi="http://sodipodi.sourceforge.net/DTD/sodipodi-0.dtd"
   xmlns:inkscape="http://www.inkscape.org/namespaces/inkscape"
   width="398.19247"
   height="279.07645"
   id="svg3823"
   version="1.1"
   inkscape:version="0.48.4 r9939"
   sodipodi:docname="label1m.svg">
  <defs
     id="defs3825" />
  <sodipodi:namedview
     id="base"
     pagecolor="#ffffff"
     bordercolor="#666666"
     borderopacity="1.0"
     inkscape:pageopacity="0.0"
     inkscape:pageshadow="2"
     inkscape:zoom="0.35"
     inkscape:cx="208.38195"
     inkscape:cy="125.25252"
     inkscape:document-units="px"
     inkscape:current-layer="layer1"
     showgrid="false"
     fit-margin-top="0"
     fit-margin-left="0"
     fit-margin-right="0"
     fit-margin-bottom="0"
     inkscape:window-width="472"
     inkscape:window-height="383"
     inkscape:window-x="706"
     inkscape:window-y="186"
     inkscape:window-maximized="0" />
  <metadata
     id="metadata3828">
    <rdf:RDF>
      <cc:Work
         rdf:about="">
        <dc:format>image/svg+xml</dc:format>
        <dc:type
           rdf:resource="http://purl.org/dc/dcmitype/StillImage" />
        <dc:title></dc:title>
      </cc:Work>
    </rdf:RDF>
  </metadata>
  <g
     inkscape:label="Layer 1"
     inkscape:groupmode="layer"
     id="layer1"
     transform="translate(-166.61805,-378.53825)">
    <g
       id="g3383"
       transform="matrix(1.535237,1.5726515,-1.5726515,1.535237,211.49622,-711.69159)">
      <path
         style="fill:#dee3e1;fill-opacity:1;stroke:none;filter:url(#filter6002)"
         d="m 528.94887,293.98407 19.28058,16.60036 c 0,0 5.18147,3.47817 -1.05814,10.54073 -6.23962,7.06256 -78.18485,90.26702 -78.18485,90.26702 0,0 -2.33753,3.41711 -7.00352,4.01822 -4.66599,0.60111 -53.03743,4.46517 -53.03743,4.46517 0,0 -4.52412,1.29946 -8.70005,-2.40537 -4.17592,-3.70483 -17.46081,-15.62758 -17.46081,-15.62758 0,0 -3.97443,-1.77682 -3.93598,-7.53484 0.0385,-5.75802 -3.24936,-53.05508 -3.24936,-53.05508 0,0 -1.28392,-4.00707 4.12185,-9.5298 5.40575,-5.52273 78.25365,-90.61663 78.25365,-90.61663 0,0 3.81011,-6.32846 13.27039,2.5173 9.46026,8.84578 9.4989,8.92713 9.4989,8.92713 z"
         id="path4970-9"
         inkscape:connector-curvature="0" />
      <text
         inkscape:transform-center-y="-7.8563598"
         inkscape:transform-center-x="34.552906"
         transform="matrix(0.61772597,-0.78639343,0.78639343,0.61772597,0,0)"
         sodipodi:linespacing="88%"
         id="text5078-8"
         y="559.15271"
         x="-41.117157"
         style="font-size:38px;font-style:normal;font-variant:normal;font-weight:bold;font-stretch:normal;line-height:87.99999952%;letter-spacing:0px;word-spacing:0px;fill:#000000;fill-opacity:1;stroke:none;font-family:A little sunshine;-inkscape-font-specification:A little sunshine Bold"
         xml:space="preserve"><tspan
           id="tspan5082-5"
           style="font-size:38px;font-style:normal;font-weight:bold;line-height:87.99999952%;letter-spacing:-1.24000216px;-inkscape-font-specification:A little sunshine Bold"
           y="559.15271"
           x="-41.117157"
           sodipodi:role="line">Owee</tspan><tspan
           id="tspan5114"
           style="font-size:38px;font-style:normal;font-weight:bold;line-height:87.99999952%;letter-spacing:-1.24000216px;-inkscape-font-specification:A little sunshine Bold"
           y="592.59271"
           x="-41.117157"
           sodipodi:role="line">Programma</tspan></text>
    </g>
  </g>
</svg>
