<?xml version="1.0" encoding="UTF-8" standalone="no"?>
<!-- Created with Inkscape (http://www.inkscape.org/) -->

<svg
   xmlns:dc="http://purl.org/dc/elements/1.1/"
   xmlns:cc="http://creativecommons.org/ns#"
   xmlns:rdf="http://www.w3.org/1999/02/22-rdf-syntax-ns#"
   xmlns:svg="http://www.w3.org/2000/svg"
   xmlns="http://www.w3.org/2000/svg"
   xmlns:sodipodi="http://sodipodi.sourceforge.net/DTD/sodipodi-0.dtd"
   xmlns:inkscape="http://www.inkscape.org/namespaces/inkscape"
   version="1.1"
   width="1024"
   height="768"
   id="svg3039"
   inkscape:version="0.48.4 r9939"
   sodipodi:docname="shadowlogo.svg">
  <sodipodi:namedview
     pagecolor="#ffffff"
     bordercolor="#666666"
     borderopacity="1"
     objecttolerance="10"
     gridtolerance="10"
     guidetolerance="10"
     inkscape:pageopacity="0"
     inkscape:pageshadow="2"
     inkscape:window-width="1535"
     inkscape:window-height="876"
     id="namedview3072"
     showgrid="false"
     inkscape:zoom="1.1992187"
     inkscape:cx="461.14091"
     inkscape:cy="405.08657"
     inkscape:window-x="65"
     inkscape:window-y="24"
     inkscape:window-maximized="1"
     inkscape:current-layer="svg3039" />
  <metadata
     id="metadata3045">
    <rdf:RDF>
      <cc:Work
         rdf:about="">
        <dc:format>image/svg+xml</dc:format>
        <dc:type
           rdf:resource="http://purl.org/dc/dcmitype/StillImage" />
        <dc:title />
      </cc:Work>
    </rdf:RDF>
  </metadata>
  <defs
     id="defs3043">
    <clipPath
       id="clipPath4001">
      <path
         d="m 0,841.89 595.28,0 L 595.28,0 0,0 0,841.89 z"
         id="path4003" />
    </clipPath>
    <clipPath
       id="clipPath4001-1">
      <path
         d="m 0,841.89 595.28,0 L 595.28,0 0,0 0,841.89 z"
         id="path4003-7" />
    </clipPath>
    <clipPath
       id="clipPath4001-1-5">
      <path
         d="m 0,841.89 595.28,0 L 595.28,0 0,0 0,841.89 z"
         id="path4003-7-9" />
    </clipPath>
    <clipPath
       id="clipPath4001-1-8">
      <path
         d="m 0,841.89 595.28,0 L 595.28,0 0,0 0,841.89 z"
         id="path4003-7-0" />
    </clipPath>
    <clipPath
       id="clipPath4001-7">
      <path
         d="m 0,841.89 595.28,0 L 595.28,0 0,0 0,841.89 z"
         id="path4003-0" />
    </clipPath>
    <filter
       color-interpolation-filters="sRGB"
       id="filter6002">
      <feFlood
         result="flood"
         flood-color="rgb(0,0,0)"
         flood-opacity="0.705"
         id="feFlood6004" />
      <feComposite
         in2="SourceGraphic"
         operator="in"
         in="flood"
         result="composite1"
         id="feComposite6006" />
      <feGaussianBlur
         result="blur"
         stdDeviation="4"
         id="feGaussianBlur6008" />
      <feOffset
         result="offset"
         dy="4"
         dx="4"
         id="feOffset6010" />
      <feComposite
         in2="offset"
         operator="over"
         in="SourceGraphic"
         result="composite2"
         id="feComposite6012" />
    </filter>
    <filter
       color-interpolation-filters="sRGB"
       id="filter6026">
      <feFlood
         result="flood"
         flood-color="rgb(0,0,0)"
         flood-opacity="0.705"
         id="feFlood6028" />
      <feComposite
         in2="SourceGraphic"
         operator="in"
         in="flood"
         result="composite1"
         id="feComposite6030" />
      <feGaussianBlur
         result="blur"
         stdDeviation="4"
         id="feGaussianBlur6032" />
      <feOffset
         result="offset"
         dy="4"
         dx="4"
         id="feOffset6034" />
      <feComposite
         in2="offset"
         operator="over"
         in="SourceGraphic"
         result="composite2"
         id="feComposite6036" />
    </filter>
  </defs>
  <path
     style="color:#000000;fill:#dee3e1;fill-opacity:1;fill-rule:nonzero;stroke:none;stroke-width:0.85611856;marker:none;visibility:visible;display:inline;overflow:visible;filter:url(#filter6002);enable-background:accumulate"
     d="M 811.375 6.9375 C 808.63642 7.1152138 807.4375 9.09375 807.4375 9.09375 C 807.4375 9.09375 734.562 94.196021 729.15625 99.71875 C 723.75048 105.24148 725.0625 109.25 725.0625 109.25 C 725.0625 109.25 728.351 156.55448 728.3125 162.3125 C 728.27405 168.07052 732.25 169.84375 732.25 169.84375 C 732.25 169.84375 733.97851 171.38782 734.3125 171.6875 C 733.52104 172.9687 732.59581 174.63374 731.6875 176.65625 C 729.26533 182.04961 726.81511 190.12183 726.6875 200.96875 C 726.56368 211.49366 725.43207 219.48898 723.375 225.09375 C 723.20979 225.54388 723.01934 225.9559 722.84375 226.375 L 635.53125 226.375 L 635.53125 303.125 L 687.625 289.46875 C 685.02769 284.87735 684.1936 280.23392 685.59375 276 C 689.87164 263.06407 713.24317 258.78757 737.78125 266.46875 C 742.81692 268.04507 747.47531 270.02361 751.71875 272.25 L 751.71875 236.375 C 751.71875 230.835 747.25875 226.375 741.71875 226.375 L 726.21875 226.375 C 726.24715 226.2994 726.2846 226.23252 726.3125 226.15625 C 728.56793 220.01102 729.68632 211.75634 729.8125 201.03125 C 729.93489 190.62817 732.23467 182.95039 734.5 177.90625 C 735.25238 176.23096 735.97395 174.87196 736.625 173.78125 C 740.56578 177.31594 746.56135 182.69527 749.6875 185.46875 C 753.86343 189.17358 758.40625 187.875 758.40625 187.875 C 758.40625 187.875 806.77151 184.00736 811.4375 183.40625 C 816.10349 182.80514 818.4375 179.40625 818.4375 179.40625 C 818.4375 179.40625 890.38538 96.187558 896.625 89.125 C 902.86461 82.062443 897.6875 78.59375 897.6875 78.59375 L 878.40625 62 L 830.1875 20.5625 C 830.1875 20.5625 830.14776 20.470773 820.6875 11.625 C 816.54863 7.7549772 813.505 6.7992781 811.375 6.9375 z M 208.53125 23.625 C 207.02407 23.64299 205.54992 24.390276 204.65625 25.75 L 154.46875 102.09375 C 153.03887 104.26931 153.63694 107.16387 155.8125 108.59375 L 297.96875 202.03125 C 300.14431 203.46113 303.03887 202.86306 304.46875 200.6875 L 327 166.40625 C 327.53875 166.28357 328.09467 166.17482 328.65625 166.0625 C 334.2561 164.94253 340.71391 164.67851 343.84375 166.8125 C 347.51488 169.31555 348.4791 171.21542 349.625 173.375 C 350.7709 175.53458 352.14461 178.03677 355.9375 180.3125 C 363.82298 185.04378 376.36294 183.37261 384.375 181.1875 C 388.44256 180.07817 394.19239 177.7379 399.71875 176.25 C 405.24511 174.7621 410.39211 174.35746 412.78125 176 C 417.51205 179.25242 418.36856 187.71063 412.46875 194.59375 C 406.61112 201.42764 394.177 205.05344 383.3125 207.15625 C 372.19258 209.30849 368.14253 212.0706 362.4375 217.0625 C 359.72566 219.43536 358.08558 222.92134 357.15625 226.375 L 283.4375 226.375 C 277.8975 226.375 273.4375 230.835 273.4375 236.375 L 273.4375 245.5625 C 264.46047 247.76061 254.04036 252.81178 244.21875 263.5 L 244.15625 263.5625 C 231.98044 276.8401 228.97006 288.11886 229.15625 296.125 C 229.34106 304.07204 232.71926 308.78878 232.78125 308.875 L 232.75 308.875 C 232.75 308.875 237.61152 316.43723 240.71875 325.5 C 242.27237 330.03138 243.37449 334.92428 243.25 339.3125 C 243.12551 343.70072 241.85862 347.52099 238.6875 350.375 C 232.20256 356.21144 221.6119 356.47747 212.53125 355.09375 C 210.97159 354.85609 209.49191 354.55615 208.0625 354.25 C 209.2734 351.4836 214.4874 339.59672 216.46875 335 C 218.67846 329.87347 216.03125 325.96875 216.03125 325.96875 C 216.03125 325.96875 197.18918 281.24264 195.15625 277 C 193.12332 272.75736 189.15625 271.625 189.15625 271.625 C 189.15625 271.625 87.599558 229.36856 78.9375 225.65625 C 70.275442 221.94394 68.59375 227.9375 68.59375 227.9375 L 58.875 251.46875 L 34.625 310.21875 C 34.625 310.21875 34.560884 310.2756 29.125 322.03125 C 23.689117 333.7869 30.90625 335.4375 30.90625 335.4375 C 30.90625 335.4375 134.53026 377.9408 141.46875 381.34375 C 148.40724 384.74671 151.8125 382.28125 151.8125 382.28125 C 151.8125 382.28125 195.70742 364.33027 201.1875 362.5625 C 205.24031 361.25514 206.50543 358.54133 206.90625 357.21875 C 208.53817 357.58023 210.25732 357.91242 212.0625 358.1875 C 221.5434 359.63221 233.0928 359.54773 240.75 352.65625 C 244.64994 349.1463 246.20307 344.3651 246.34375 339.40625 C 246.48443 334.4474 245.28461 329.24939 243.65625 324.5 C 240.39952 315.00121 235.34375 307.1875 235.34375 307.1875 L 235.34375 307.15625 L 235.3125 307.09375 C 235.3125 307.09375 232.41704 303.24537 232.25 296.0625 C 232.08296 288.87963 234.68672 278.44937 246.5 265.59375 C 255.65188 255.63435 265.19129 250.83047 273.4375 248.65625 L 273.4375 388.65625 C 271.85757 388.97708 270.52706 389.54981 269.4375 390.3125 C 267.23022 391.8576 266.13952 394.12775 265.6875 396.3125 C 264.80466 400.57955 266.06373 404.68007 266.125 404.875 C 266.126 404.88 266.15625 405 266.15625 405 C 266.19835 405.19133 267.38735 410.73823 267.09375 417.28125 C 266.79506 423.93771 264.93003 431.1987 259.0625 434.6875 C 253.23692 438.15136 241.0455 438.53763 230.5 437.75 C 219.9545 436.96237 211.03125 435.1875 211.03125 435.1875 L 211.03125 435.21875 C 211.03125 435.21875 176.94271 427.82342 153.90625 445.375 C 142.10481 454.36658 136.6527 473.17295 133.84375 489.9375 C 131.0348 506.70205 131.03125 521.56434 131.03125 522.625 L 134.125 522.625 C 134.125 521.56434 134.1467 506.90697 136.90625 490.4375 C 139.66576 473.96803 145.30883 455.82273 155.78125 447.84375 C 177.29253 431.45421 210.40625 438.25 210.40625 438.25 C 210.40625 438.25 219.52516 440.04039 230.28125 440.84375 C 241.03734 441.64711 253.40036 441.65806 260.65625 437.34375 C 267.8702 433.05437 269.89872 424.56962 270.21875 417.4375 C 270.53878 410.30538 269.15625 404.21875 269.15625 404.21875 L 269.125 404.15625 L 269.125 404.09375 C 269.125 404.09375 268.03179 400.25779 268.71875 396.9375 C 269.06223 395.27736 269.78002 393.85086 271.21875 392.84375 C 271.79896 392.43761 272.53327 392.08888 273.4375 391.84375 L 273.4375 547.03125 C 273.4375 552.57125 277.8975 557.03125 283.4375 557.03125 L 388.5625 557.03125 L 388.5625 510.84375 L 326.3125 526.5 L 326.1875 526.53125 L 326.09375 526.5625 C 321.46235 527.37424 317.1253 529.30463 312.34375 528.78125 C 309.95298 528.51956 307.47661 527.32401 305.6875 525.1875 C 303.91187 523.0671 302.67226 520.17376 301.71875 516.21875 C 301.71175 516.18875 301.6946 516.18635 301.6875 516.15625 L 275.625 418.28125 L 275.625 418.25 L 275.625 418.21875 C 273.78756 410.46814 275.00105 404.52772 278.78125 400.5 C 282.56145 396.47228 288.1107 394.47994 294.46875 392.5625 L 294.53125 392.53125 L 294.5625 392.53125 L 388.5625 367.875 L 388.5625 359.84375 L 343.75 359.84375 L 343.75 325.65625 L 307.9375 338.46875 L 282.125 265.5 L 347.28125 242.9375 L 372.34375 316.0625 L 361.71875 320.1875 L 388.5625 320.1875 L 388.5625 226.375 L 360.375 226.375 C 361.24396 223.626 362.63967 221.0067 364.46875 219.40625 C 370.07744 214.49865 373.10585 212.2779 383.90625 210.1875 C 394.96205 208.04767 407.97344 204.6091 414.84375 196.59375 C 421.67186 188.62763 421.11415 177.99449 414.53125 173.46875 C 410.5241 170.71384 404.71677 171.72525 398.9375 173.28125 C 393.15823 174.83725 387.27312 177.17551 383.5625 178.1875 C 376.01822 180.24503 363.78791 181.41025 357.53125 177.65625 C 354.25307 175.68934 353.49595 174.10895 352.34375 171.9375 C 351.19155 169.76605 349.7008 167.05026 345.59375 164.25 C 343.26959 162.66534 340.34613 162.06503 337.28125 162 C 334.67441 161.94471 331.97059 162.28586 329.40625 162.75 L 354.65625 124.34375 C 356.08613 122.16819 355.48806 119.27363 353.3125 117.84375 L 211.15625 24.40625 C 210.34042 23.870046 209.43556 23.614204 208.53125 23.625 z M 317.40625 151.15625 C 320.87529 151.15625 323.6875 153.90387 323.6875 157.3125 C 323.6875 160.72113 320.87529 163.5 317.40625 163.5 C 313.93721 163.5 311.125 160.72113 311.125 157.3125 C 311.125 153.90387 313.93721 151.15625 317.40625 151.15625 z M 581.09375 178.625 C 580.3902 178.5924 579.9375 178.6875 579.9375 178.6875 L 447.78125 178.6875 C 436.10752 178.6875 436.5 185.34375 436.5 185.34375 L 436.5 226.375 L 401.375 226.375 L 401.375 320.1875 L 422.21875 320.1875 L 422.21875 359.0625 L 622.71875 306.5 L 622.71875 226.375 L 587.4375 226.375 L 587.4375 188.0625 C 587.4375 179.93259 583.2044 178.72272 581.09375 178.625 z M 455.28125 186.8125 L 567.84375 186.8125 C 577.01596 186.8125 575.125 193.0625 575.125 193.0625 L 575.125 226.375 L 448.8125 226.375 L 448.8125 195.5625 C 448.8125 187.64104 455.28125 186.8125 455.28125 186.8125 z M 706.40625 291.5 C 703.43936 291.5939 699.68405 292.30695 694.90625 293.625 L 694.875 293.65625 L 296.25 398.15625 C 296.2101 398.16825 296.19585 398.1755 296.15625 398.1875 C 290.09446 400.0225 285.56013 401.94281 283.21875 404.4375 C 280.87271 406.93715 279.91164 410.17857 281.46875 416.8125 L 281.5 416.90625 L 307.5625 514.75 L 307.5625 514.78125 L 307.59375 514.84375 C 308.43159 518.34818 309.44159 520.42267 310.34375 521.5 C 311.24591 522.57733 311.89664 522.84456 313.03125 522.96875 C 315.26611 523.21337 319.54512 521.7879 324.8125 520.84375 L 324.8125 520.8125 L 735.75 417.46875 C 742.5454 414.99808 744.81061 410.66789 745.75 406.625 C 746.69633 402.55226 745.96875 399.09375 745.96875 399.09375 L 719.4375 301.9375 C 716.7383 295.6997 714.22507 293.04932 710.9375 292 C 709.69507 291.60344 708.18638 291.44366 706.40625 291.5 z M 818.15625 299.46875 C 815.97186 299.34364 813.92412 300.76595 813.34375 302.96875 L 804.40625 336.9375 C 803.06408 334.70133 801.1758 332.08363 798.65625 329.875 C 795.8707 327.4332 792.26461 325.49839 787.90625 325.40625 C 783.54789 325.31415 778.58358 327.09845 773.125 331.59375 C 764.96684 338.31223 757.68573 339.08503 751.71875 337.6875 L 751.71875 316.875 C 744.99351 317.51822 737.29609 316.99328 729.28125 315.1875 L 751.71875 397.28125 L 751.71875 340.78125 C 758.39757 342.08225 766.59036 340.97154 775.09375 333.96875 C 780.15338 329.80199 784.36317 328.42642 787.84375 328.5 C 791.32433 328.5736 794.21774 330.10855 796.625 332.21875 C 799.98605 335.16503 802.20863 339.15018 803.25 341.3125 L 790.0625 391.3125 C 789.3992 393.82998 790.88874 396.36798 793.40625 397.03125 L 957.90625 440.375 C 958.8503 440.62373 959.80239 440.5793 960.65625 440.28125 C 962.07935 439.78459 963.24175 438.60467 963.65625 437.03125 L 986.9375 348.6875 C 987.6008 346.17002 986.11125 343.63203 983.59375 342.96875 L 819.09375 299.625 C 818.77906 299.54209 818.46831 299.48662 818.15625 299.46875 z M 704.3125 315.40625 L 710.6875 338.5 L 636.71875 357.8125 L 630.3125 334.71875 L 704.3125 315.40625 z M 622.96875 336.625 L 629.375 359.71875 L 555.375 379 L 548.96875 355.90625 L 622.96875 336.625 z M 814.78125 342 C 817.45514 341.93086 819.96247 343.56194 820.84375 346.1875 C 821.92839 349.41895 820.13247 352.92738 816.84375 354.03125 C 813.55502 355.13512 810.02215 353.41895 808.9375 350.1875 C 807.85285 346.95604 809.64878 343.41637 812.9375 342.3125 C 813.55414 342.10552 814.1642 342.01596 814.78125 342 z M 712.53125 345.1875 L 717.46875 363.03125 L 671.65625 374.96875 L 673.46875 381.46875 L 719.25 369.53125 L 726.03125 394.125 L 652.0625 413.40625 L 638.53125 364.5 L 712.53125 345.1875 z M 541.71875 357.8125 L 548.125 380.90625 L 474.0625 400.21875 C 474.0625 400.21875 468.77956 376.83391 492.71875 370.59375 L 541.71875 357.8125 z M 401.375 359.84375 L 401.375 364.53125 L 419.21875 359.84375 L 401.375 359.84375 z M 631.1875 366.40625 L 636.125 384.25 L 590.3125 396.1875 L 592.125 402.6875 L 637.90625 390.75 L 644.6875 415.34375 L 570.71875 434.59375 L 557.21875 385.6875 L 631.1875 366.40625 z M 460.3125 379.03125 L 466.6875 402.125 L 392.6875 421.4375 L 386.3125 398.3125 L 460.3125 379.03125 z M 549.96875 387.59375 L 558.09375 417.09375 C 563.44895 436.49338 540.4375 442.5 540.4375 442.5 L 489.40625 455.8125 L 475.90625 406.875 L 503.78125 399.625 L 510.5 423.96875 L 528.875 419.1875 L 527.09375 412.625 L 516.15625 415.46875 L 511.25 397.6875 L 549.96875 387.59375 z M 362.28125 404.59375 L 389.5625 443.5 L 389.6875 443.46875 L 389.59375 443.5625 L 404.78125 465.21875 L 394.53125 428.09375 L 468.53125 408.8125 L 473.4375 426.65625 L 427.65625 438.59375 L 429.4375 445.09375 L 475.25 433.15625 L 482.03125 457.75 L 408.03125 477.03125 L 407.90625 476.625 L 321.9375 499.0625 L 328.5625 413.40625 L 362.28125 404.59375 z M 389.59375 443.5625 L 389.5625 443.5 L 365.125 449.875 L 351.5625 430.21875 L 349.9375 453.84375 L 325.375 460.25 L 348.9375 468.40625 L 347.3125 492.03125 L 363.5 473.46875 L 387.0625 481.65625 L 373.5 462 L 389.59375 443.5625 z M 751.71875 407.4375 C 751.68325 407.60748 751.6648 407.76582 751.625 407.9375 C 750.36775 413.34837 746.49446 419.89569 737.6875 423.03125 L 737.5625 423.0625 L 737.40625 423.09375 L 635.53125 448.71875 L 635.53125 557.03125 L 741.71875 557.03125 C 747.25875 557.03125 751.71875 552.57125 751.71875 547.03125 L 751.71875 490.28125 L 767.34375 489.28125 L 767.4375 489.28125 L 767.5 489.28125 C 767.5 489.28125 774.14056 488.11236 780.375 493.25 C 786.60944 498.38764 792.69381 510.11563 790.21875 537.09375 C 787.68769 564.68227 795.60788 579.41055 804.375 587 C 813.14212 594.58945 822.6875 595.0625 822.6875 595.0625 L 822.8125 591.9375 C 822.8125 591.9375 814.35788 591.53555 806.375 584.625 C 798.39212 577.71445 790.81231 564.31773 793.28125 537.40625 C 795.80619 509.88437 789.64056 496.86236 782.375 490.875 C 776.92583 486.38448 770.99488 485.99674 768.375 486.09375 C 767.60013 486.12245 767.25598 486.20349 767.15625 486.21875 C 767.14355 486.22075 767 486.21875 767 486.21875 L 751.71875 487.1875 L 751.71875 407.4375 z M 622.71875 451.9375 L 401.375 507.625 L 401.375 557.03125 L 622.71875 557.03125 L 622.71875 451.9375 z M 693.34375 458.65625 C 716.71492 458.65625 735.65625 477.59758 735.65625 500.96875 C 735.65625 524.33992 716.71492 543.28125 693.34375 543.28125 C 669.97258 543.28125 651.03125 524.33992 651.03125 500.96875 C 651.03125 477.59758 669.97258 458.65625 693.34375 458.65625 z M 693.4375 463.4375 C 672.65673 463.4375 655.8125 480.28173 655.8125 501.0625 C 655.8125 521.84327 672.65673 538.6875 693.4375 538.6875 C 714.21827 538.6875 731.0625 521.84327 731.0625 501.0625 C 731.0625 480.28173 714.21827 463.4375 693.4375 463.4375 z M 693.75 467 C 702.74045 467 710.88548 470.55363 716.90625 476.3125 L 661.4375 491.59375 C 665.35159 477.4174 678.32784 467 693.75 467 z M 726.28125 492.46875 C 726.92023 495.05446 727.28125 497.74798 727.28125 500.53125 C 727.28125 519.05167 712.27042 534.0625 693.75 534.0625 C 678.32784 534.0625 665.35159 523.6451 661.4375 509.46875 L 726.28125 492.46875 z "
     id="rect5016-8" />
  <path
     inkscape:connector-curvature="0"
     style="color:#000000;fill:#dee3e1;fill-opacity:1;fill-rule:nonzero;stroke:none;stroke-width:0.85611856;marker:none;visibility:visible;display:inline;overflow:visible;filter:url(#filter6002);enable-background:accumulate"
     id="rect5016-7"
     d="m 25.608619,668.7624 c 0.385441,1.45717 1.470027,2.70426 3.006791,3.2389 l 86.28683,30.02891 c 2.45883,0.85544 5.11977,-0.43126 5.9752,-2.89009 l 55.90155,-160.6673 c 0.85543,-2.45883 -0.43126,-5.11977 -2.89009,-5.9752 L 87.602065,502.4687 c -2.458831,-0.85543 -5.119769,0.43126 -5.975201,2.89009 L 25.725318,666.0261 c -0.320783,0.92205 -0.347964,1.862 -0.116699,2.7363 z M 122.6979,532.04497 c -0.84699,-3.36406 1.13086,-6.76201 4.43633,-7.59424 3.30548,-0.83223 6.68686,1.21639 7.53385,4.58045 0.84698,3.36405 -1.16117,6.76963 -4.46665,7.60186 -3.30547,0.83224 -6.65655,-1.22402 -7.50353,-4.58807 z" />
  <path
     inkscape:connector-curvature="0"
     style="fill:#dee3e1;fill-opacity:1;stroke:none;filter:url(#filter6002)"
     id="path4970-9-9"
     d="M 954.99387,700.91645 940.7005,721.9643 c 0,0 -2.8646,5.54431 -10.59263,0.1508 -7.72804,-5.39353 -98.59411,-67.38106 -98.59411,-67.38106 0,0 -3.66139,-1.93261 -4.79067,-6.49961 -1.12928,-4.567 -10.48426,-52.18225 -10.48426,-52.18225 0,0 -1.80689,-4.34642 1.39756,-8.9176 3.20445,-4.57116 13.53446,-19.12902 13.53446,-19.12902 0,0 1.312,-4.15112 7.03684,-4.76955 5.72485,-0.61838 52.33843,-9.27839 52.33843,-9.27839 0,0 3.8345,-1.7325 9.93767,3.00821 6.10315,4.7407 98.94929,67.40954 98.94929,67.40954 0,0 6.72162,3.06358 -0.98758,13.47089 -7.70924,10.40729 -7.78566,10.45495 -7.78566,10.45495 z" />
  <g
     transform="matrix(1.25,0,0,-1.25,-397.22131,1057.6077)"
     id="g3997" />
  <g
     transform="matrix(0.8606884,0,0,-0.83637109,257.48927,763.90569)"
     clip-path="url(#clipPath4001-7)"
     id="g3999">
    <g
       transform="translate(570.9883,436.8887)"
       id="g4005" />
    <g
       transform="translate(570.9883,436.8887)"
       id="g4009" />
    <g
       transform="translate(534.4277,479.2949)"
       id="g4013" />
    <g
       transform="translate(519.1592,536.2368)"
       id="g4017" />
    <g
       transform="translate(439.9199,453.9365)"
       id="g4021" />
    <g
       transform="translate(424.6455,510.8809)"
       id="g4025" />
    <g
       transform="translate(294.8291,437.8789)"
       id="g4029" />
    <g
       transform="translate(337.6621,457.9277)"
       id="g4033" />
    <g
       transform="translate(250.9067,403.2285)"
       id="g4037" />
    <g
       transform="translate(235.646,460.1704)"
       id="g4041" />
    <g
       transform="translate(153.4438,383.0937)"
       id="g4045" />
  </g>
  <text
     x="218.0925"
     y="-45.331139"
     transform="matrix(0.84246648,0.53874876,-0.53874876,0.84246648,0,0)"
     id="text5078"
     xml:space="preserve"
     style="font-size:38px;font-style:normal;font-variant:normal;font-weight:bold;font-stretch:normal;line-height:87.99999952000000292%;letter-spacing:0.04px;word-spacing:0px;fill:#000000;fill-opacity:1;stroke:none;font-family:A little sunshine;-inkscape-font-specification:A little sunshine Bold"><tspan
       x="218.0925"
       y="-45.331139"
       id="tspan5080"
       style="font-size:38px;font-style:normal;font-weight:bold;line-height:87.99999952000000292%;letter-spacing:0.04px;-inkscape-font-specification:A little sunshine Bold">Waar vind </tspan><tspan
       x="218.0925"
       y="-11.891139"
       id="tspan5082"
       style="font-size:38px;font-style:normal;font-weight:bold;line-height:87.99999952000000292%;letter-spacing:0.04px;-inkscape-font-specification:A little sunshine Bold">je ons?</tspan></text>
  <text
     x="351.57303"
     y="689.97223"
     transform="matrix(0.61772597,-0.78639343,0.78639343,0.61772597,0,0)"
     id="text5078-8"
     xml:space="preserve"
     style="font-size:38px;font-style:normal;font-variant:normal;font-weight:bold;font-stretch:normal;line-height:87.99999952%;letter-spacing:0.04px;word-spacing:0px;fill:#000000;fill-opacity:1;stroke:none;font-family:A little sunshine;-inkscape-font-specification:A little sunshine Bold"
     sodipodi:linespacing="88%"><tspan
       x="351.57303"
       y="689.97223"
       id="tspan5082-5"
       style="font-size:38px;font-style:normal;font-weight:bold;line-height:87.99999952%;letter-spacing:0.04px;-inkscape-font-specification:A little sunshine Bold">Owee</tspan><tspan
       x="351.57303"
       y="723.41223"
       id="tspan5114"
       style="font-size:38px;font-style:normal;font-weight:bold;line-height:87.99999952%;letter-spacing:0.04px;-inkscape-font-specification:A little sunshine Bold">Programma</tspan></text>
  <text
     x="189.71146"
     y="229.60152"
     transform="matrix(0.91973324,0.39254397,-0.39254397,0.91973324,0,0)"
     id="text5078-3"
     xml:space="preserve"
     style="font-size:38px;font-style:normal;font-variant:normal;font-weight:bold;font-stretch:normal;line-height:87.99999952000000292%;letter-spacing:0.04px;word-spacing:0px;fill:#000000;fill-opacity:1;stroke:none;font-family:A little sunshine;-inkscape-font-specification:A little sunshine Bold"><tspan
       x="189.71146"
       y="229.60152"
       id="tspan5082-7"
       style="font-size:38px;font-style:normal;font-weight:bold;line-height:87.99999952000000292%;letter-spacing:0.04px;-inkscape-font-specification:A little sunshine Bold">Lift naar </tspan><tspan
       x="189.71146"
       y="263.0415"
       id="tspan5129"
       style="font-size:38px;font-style:normal;font-weight:bold;line-height:87.99999952000000292%;letter-spacing:0.04px;-inkscape-font-specification:A little sunshine Bold">Berlijn!</tspan></text>
  <text
     x="-579.82623"
     y="312.17984"
     transform="matrix(0.35971096,-0.93306378,0.93306378,0.35971096,0,0)"
     id="text5078-2"
     xml:space="preserve"
     style="font-size:38px;font-style:normal;font-variant:normal;font-weight:bold;font-stretch:normal;line-height:87.99999952000000292%;letter-spacing:0.04px;word-spacing:0px;fill:#000000;fill-opacity:1;stroke:none;font-family:A little sunshine;-inkscape-font-specification:A little sunshine Bold"><tspan
       x="-579.82623"
       y="312.17984"
       id="tspan5082-3"
       style="font-size:38px;font-style:normal;font-weight:bold;line-height:87.99999952000000292%;letter-spacing:0.04px;-inkscape-font-specification:A little sunshine Bold">Wat is </tspan><tspan
       x="-579.82623"
       y="345.61984"
       id="tspan5144"
       style="font-size:38px;font-style:normal;font-weight:bold;line-height:87.99999952000000292%;letter-spacing:0.04px;-inkscape-font-specification:A little sunshine Bold">AEGEE?</tspan></text>
  <text
     x="1028.9602"
     y="-20.505793"
     transform="matrix(0.80854019,0.58844096,-0.58844096,0.80854019,0,0)"
     id="text5078-9"
     xml:space="preserve"
     style="font-size:38px;font-style:normal;font-variant:normal;font-weight:bold;font-stretch:normal;line-height:87.99999952%;letter-spacing:0.04px;word-spacing:0px;fill:#000000;fill-opacity:1;stroke:none;font-family:A little sunshine;-inkscape-font-specification:A little sunshine Bold"
     sodipodi:linespacing="88%"><tspan
       x="1028.9602"
       y="-20.505793"
       id="tspan5082-9"
       style="font-size:38px;font-style:normal;font-weight:bold;line-height:87.99999952%;letter-spacing:0.04px;-inkscape-font-specification:A little sunshine Bold">AEGEE-Delft</tspan><tspan
       x="1028.9602"
       y="12.934206"
       id="tspan5159"
       style="font-size:38px;font-style:normal;font-weight:bold;line-height:87.99999952%;letter-spacing:0.04px;-inkscape-font-specification:A little sunshine Bold">Website</tspan></text>
  <text
     x="912.47723"
     y="138.68446"
     transform="matrix(0.96933354,0.24574883,-0.24574883,0.96933354,0,0)"
     id="text5078-4"
     xml:space="preserve"
     style="font-size:38px;font-style:normal;font-variant:normal;font-weight:bold;font-stretch:normal;line-height:87.99999952000000292%;letter-spacing:0.04px;word-spacing:0px;fill:#000000;fill-opacity:1;stroke:none;font-family:A little sunshine;-inkscape-font-specification:A little sunshine Bold"
     sodipodi:linespacing="88%"><tspan
       x="912.47723"
       y="138.68446"
       id="tspan5082-0"
       style="font-size:38px;font-style:normal;font-weight:bold;line-height:87.99999952000000292%;letter-spacing:0.04px;-inkscape-font-specification:A little sunshine Bold">Ik wil lid</tspan><tspan
       x="912.47723"
       y="172.12447"
       id="tspan5174"
       style="font-size:38px;font-style:normal;font-weight:bold;line-height:87.99999952000000292%;letter-spacing:0.04px;-inkscape-font-specification:A little sunshine Bold">worden!</tspan></text>
  <text
     x="268.89905"
     y="625.17914"
     id="text5176"
     xml:space="preserve"
     style="font-size:40px;font-style:normal;font-variant:normal;font-weight:bold;font-stretch:normal;line-height:125%;letter-spacing:0px;word-spacing:0px;fill:#dee3e1;fill-opacity:1;stroke:none;filter:url(#filter6026);font-family:Sans;-inkscape-font-specification:Sans Bold"
     sodipodi:linespacing="125%"><tspan
       x="268.89905"
       y="625.17914"
       id="tspan5178"
       style="font-size:45px;letter-spacing:3.13000011px;word-spacing:-0.03px;fill:#dee3e1;fill-opacity:1">LAAT JE TRIPPEN!</tspan></text>
  <path
     d="m 195.51502,352.22121 c 0,0 30.05204,12.02082 44.19418,-0.7071 14.14213,-12.72792 -5.65686,-43.48707 -5.65686,-43.48707 0,0 -12.72792,-17.32412 11.31371,-43.48707 24.04163,-26.16295 51.26524,-17.67767 51.26524,-17.67767"
     id="path5397"
     style="fill:none;stroke:none" />
</svg>
